# xmcd CD database file
#
# Track frame offsets:
#	150
#	21197
#	37677
#
# Disc length: 781 seconds
#
# Revision: 0
# Processed by: cddbd v1.5PL3 Copyright (c) Steve Scherf et al.
# Submitted via: CDex 1.51
#
DISCID=15030b03
DTITLE=北原愛子 - 思い出にスクワレテモ
DYEAR=2004
DGENRE=JPop
TTITLE0=思い出にスクワレテモ
TTITLE1=いつも
TTITLE2=思い出にスクワレテモ -instrumental-
EXTD=YEAR: 2004
EXTT0=
EXTT1=
EXTT2=
PLAYORDER=
